<svg width="90" height="32" viewBox="0 0 90 32" fill="none" xmlns="http://www.w3.org/2000/svg">
<path d="M12.9527 0.109923V12.7878H11.2855V3.33435L7.07176 12.7878H5.89924L1.66718 3.31603V12.7878H0V0.109923H1.79542L6.4855 10.5893L11.1756 0.109923H12.9527Z" fill="black"/>
<path d="M23.3282 9.94809H17.7587L16.7327 12.7878H14.974L19.5907 0.091603H21.5144L26.1129 12.7878H24.3541L23.3282 9.94809ZM22.8518 8.59237L20.5434 2.14351L18.235 8.59237H22.8518Z" fill="black"/>
<path d="M34.8487 12.7878L31.8074 7.56641H29.7922V12.7878H28.125V0.0183204H32.2471C33.212 0.0183204 34.0242 0.183206 34.6838 0.512977C35.3555 0.842748 35.8563 1.28855 36.1861 1.85038C36.5158 2.41221 36.6807 3.05344 36.6807 3.77405C36.6807 4.65344 36.4242 5.42901 35.9113 6.10076C35.4105 6.77252 34.6532 7.21832 33.6395 7.43817L36.8456 12.7878H34.8487ZM29.7922 6.22901H32.2471C33.151 6.22901 33.8288 6.00916 34.2807 5.56947C34.7326 5.11756 34.9586 4.51908 34.9586 3.77405C34.9586 3.01679 34.7326 2.43053 34.2807 2.01527C33.841 1.6 33.1632 1.39237 32.2471 1.39237H29.7922V6.22901Z" fill="black"/>
<path d="M40.9384 0.0183204V12.7878H39.2712V0.0183204H40.9384Z" fill="black"/>
<path d="M50.2104 0.0183204V9.45344C50.2104 10.5038 49.8867 11.3466 49.2394 11.9817C48.592 12.6046 47.7371 12.916 46.6745 12.916C45.5997 12.916 44.7386 12.5985 44.0913 11.9634C43.4439 11.316 43.1203 10.4366 43.1203 9.32519H44.7875C44.7997 9.94809 44.9584 10.455 45.2638 10.8458C45.5813 11.2366 46.0516 11.4321 46.6745 11.4321C47.2974 11.4321 47.7615 11.2489 48.0668 10.8824C48.3722 10.5038 48.5249 10.0275 48.5249 9.45344V0.0183204H50.2104Z" fill="black"/>
<path d="M61.0428 9.94809H55.4734L54.4474 12.7878H52.6886L57.3054 0.091603H59.2291L63.8276 12.7878H62.0688L61.0428 9.94809ZM60.5665 8.59237L58.2581 2.14351L55.9497 8.59237H60.5665Z" fill="black"/>
<path d="M75.8794 12.7878H74.2122L67.5069 2.61985V12.7878H65.8397V0H67.5069L74.2122 10.1496V0H75.8794V12.7878Z" fill="black"/>
<path d="M86.2695 9.94809H80.7L79.674 12.7878H77.9153L82.5321 0.091603H84.4557L89.0542 12.7878H87.2954L86.2695 9.94809ZM85.7931 8.59237L83.4847 2.14351L81.1763 8.59237H85.7931Z" fill="black"/>
<path d="M1.66718 30.516H6.1374V31.8718H0V19.1023H1.66718V30.516Z" fill="black"/>
<path d="M9.5751 19.1023V31.8718H7.90792V19.1023H9.5751Z" fill="black"/>
<path d="M16.4654 32C15.6226 32 14.8654 31.8534 14.1936 31.5603C13.5341 31.255 13.015 30.8397 12.6364 30.3145C12.2577 29.7771 12.0623 29.1603 12.0501 28.4641H13.8272C13.8883 29.0626 14.1325 29.5695 14.56 29.9847C14.9997 30.3878 15.6348 30.5893 16.4654 30.5893C17.2593 30.5893 17.8822 30.3939 18.3341 30.0031C18.7982 29.6 19.0303 29.087 19.0303 28.4641C19.0303 27.9756 18.8959 27.5786 18.6272 27.2733C18.3585 26.9679 18.0226 26.7359 17.6196 26.5771C17.2165 26.4183 16.673 26.2473 15.989 26.0641C15.1463 25.8443 14.4684 25.6244 13.9554 25.4046C13.4547 25.1847 13.0211 24.8427 12.6547 24.3786C12.3005 23.9023 12.1234 23.2672 12.1234 22.4733C12.1234 21.7771 12.3005 21.1603 12.6547 20.6229C13.0089 20.0855 13.5035 19.6702 14.1386 19.3771C14.786 19.084 15.5249 18.9374 16.3554 18.9374C17.5524 18.9374 18.5295 19.2366 19.2867 19.8351C20.0562 20.4336 20.4898 21.2275 20.5875 22.2168H18.7554C18.6944 21.7282 18.4379 21.3008 17.986 20.9344C17.5341 20.5557 16.9356 20.3664 16.1906 20.3664C15.4944 20.3664 14.9264 20.5496 14.4867 20.916C14.047 21.2702 13.8272 21.771 13.8272 22.4183C13.8272 22.8824 13.9554 23.2611 14.2119 23.5542C14.4806 23.8473 14.8043 24.0733 15.1829 24.2321C15.5738 24.3786 16.1173 24.5496 16.8135 24.745C17.6562 24.9771 18.3341 25.2092 18.847 25.4412C19.36 25.6611 19.7997 26.0092 20.1661 26.4855C20.5325 26.9496 20.7157 27.5847 20.7157 28.3908C20.7157 29.0137 20.5509 29.6 20.2211 30.1496C19.8913 30.6992 19.4028 31.145 18.7554 31.487C18.1081 31.829 17.3448 32 16.4654 32Z" fill="black"/>
<path d="M24.8363 19.1023V31.8718H23.1691V19.1023H24.8363Z" fill="black"/>
<path d="M27.0548 25.4779C27.0548 24.2321 27.3357 23.1145 27.8976 22.1252C28.4594 21.1237 29.2228 20.342 30.1876 19.7802C31.1647 19.2183 32.2457 18.9374 33.4304 18.9374C34.8228 18.9374 36.038 19.2733 37.0762 19.945C38.1144 20.6168 38.8716 21.5695 39.348 22.8031H37.351C36.9968 22.0336 36.4838 21.4412 35.8121 21.026C35.1525 20.6107 34.3586 20.4031 33.4304 20.4031C32.5388 20.4031 31.7388 20.6107 31.0304 21.026C30.322 21.4412 29.7663 22.0336 29.3632 22.8031C28.9602 23.5603 28.7586 24.4519 28.7586 25.4779C28.7586 26.4916 28.9602 27.3832 29.3632 28.1527C29.7663 28.9099 30.322 29.4962 31.0304 29.9115C31.7388 30.3267 32.5388 30.5344 33.4304 30.5344C34.3586 30.5344 35.1525 30.3328 35.8121 29.9298C36.4838 29.5145 36.9968 28.9221 37.351 28.1527H39.348C38.8716 29.374 38.1144 30.3206 37.0762 30.9924C36.038 31.6519 34.8228 31.9817 33.4304 31.9817C32.2457 31.9817 31.1647 31.7069 30.1876 31.1573C29.2228 30.5954 28.4594 29.8198 27.8976 28.8305C27.3357 27.8412 27.0548 26.7237 27.0548 25.4779Z" fill="black"/>
<path d="M49.3778 29.0321H43.8083L42.7824 31.8718H41.0236L45.6404 19.1756H47.564L52.1625 31.8718H50.4037L49.3778 29.0321ZM48.9014 27.6763L46.593 21.2275L44.2846 27.6763H48.9014Z" fill="black"/>
</svg>
